<svg width="28" height="28" viewBox="0 0 28 28" fill="none" xmlns="http://www.w3.org/2000/svg">
<path d="M21.0938 14.8792H26.1562" stroke="white" stroke-width="2" stroke-linecap="round" stroke-linejoin="round"/>
<path d="M23.625 12.3479V17.4104" stroke="white" stroke-width="2" stroke-linecap="round" stroke-linejoin="round"/>
<path d="M11.3906 17.4104C14.8856 17.4104 17.7188 14.5772 17.7188 11.0823C17.7188 7.58735 14.8856 4.75415 11.3906 4.75415C7.8957 4.75415 5.0625 7.58735 5.0625 11.0823C5.0625 14.5772 7.8957 17.4104 11.3906 17.4104Z" fill="white" stroke="white" stroke-width="2" stroke-miterlimit="10"/>
<path d="M2 24.0354C3.10272 21.8434 4.4799 20.0807 6.03475 18.8714C7.5896 17.6621 9.28439 17.0354 11 17.0354C12.7156 17.0354 14.4104 17.6621 15.9652 18.8714C17.5201 20.0807 18.8973 21.8434 20 24.0354" fill="white"/>
</svg>
