<svg width="28" height="27" viewBox="0 0 28 27" fill="none" xmlns="http://www.w3.org/2000/svg">
<path d="M23.3828 7.59375H4.82031C4.35432 7.59375 3.97656 7.97151 3.97656 8.4375V21.9375C3.97656 22.4035 4.35432 22.7812 4.82031 22.7812H23.3828C23.8488 22.7812 24.2266 22.4035 24.2266 21.9375V8.4375C24.2266 7.97151 23.8488 7.59375 23.3828 7.59375Z" fill="#4F7C95" stroke="#4F7C95" stroke-linecap="round" stroke-linejoin="round"/>
<path d="M18.3203 7.59375V5.90625C18.3203 5.4587 18.1425 5.02947 17.8261 4.71301C17.5096 4.39654 17.0804 4.21875 16.6328 4.21875H11.5703C11.1228 4.21875 10.6935 4.39654 10.3771 4.71301C10.0606 5.02947 9.88281 5.4587 9.88281 5.90625V7.59375" stroke="#4F7C95" stroke-linecap="round" stroke-linejoin="round"/>
<path d="M24.2266 13.3208C21.1493 15.1005 17.6564 16.0356 14.1016 16.0313C10.5461 16.0406 7.0519 15.1052 3.97656 13.3208" stroke="white" stroke-linecap="round" stroke-linejoin="round"/>
<path d="M12.8359 12.6562H15.3672" stroke="white" stroke-linecap="round" stroke-linejoin="round"/>
</svg>
