<svg width="28" height="29" viewBox="0 0 28 29" fill="none" xmlns="http://www.w3.org/2000/svg">
<path d="M8.75 21.9104C10.683 21.9104 12.25 20.3434 12.25 18.4104C12.25 16.4774 10.683 14.9104 8.75 14.9104C6.817 14.9104 5.25 16.4774 5.25 18.4104C5.25 20.3434 6.817 21.9104 8.75 21.9104Z" fill="white" stroke="white" stroke-width="2" stroke-linecap="round" stroke-linejoin="round"/>
<path d="M3.5 24.5354C4.11128 23.7204 4.90392 23.0588 5.81516 22.6032C6.7264 22.1476 7.7312 21.9104 8.75 21.9104C9.7688 21.9104 10.7736 22.1476 11.6848 22.6032C12.5961 23.0588 13.3887 23.7204 14 24.5354" stroke="white" stroke-width="2" stroke-linecap="round" stroke-linejoin="round"/>
<path d="M8.75 10.5354C10.683 10.5354 12.25 8.9684 12.25 7.0354C12.25 5.1024 10.683 3.5354 8.75 3.5354C6.817 3.5354 5.25 5.1024 5.25 7.0354C5.25 8.9684 6.817 10.5354 8.75 10.5354Z" fill="white" stroke="white" stroke-width="2" stroke-linecap="round" stroke-linejoin="round"/>
<path d="M3.5 13.1604C4.11128 12.3454 4.90392 11.6838 5.81516 11.2282C6.7264 10.7726 7.7312 10.5354 8.75 10.5354C9.7688 10.5354 10.7736 10.7726 11.6848 11.2282C12.5961 11.6838 13.3887 12.3454 14 13.1604" stroke="white" stroke-width="2" stroke-linecap="round" stroke-linejoin="round"/>
<path d="M19.25 21.9104C21.183 21.9104 22.75 20.3434 22.75 18.4104C22.75 16.4774 21.183 14.9104 19.25 14.9104C17.317 14.9104 15.75 16.4774 15.75 18.4104C15.75 20.3434 17.317 21.9104 19.25 21.9104Z" fill="white" stroke="white" stroke-width="2" stroke-linecap="round" stroke-linejoin="round"/>
<path d="M14 24.5354C14.6113 23.7204 15.4039 23.0588 16.3152 22.6032C17.2264 22.1476 18.2312 21.9104 19.25 21.9104C20.2688 21.9104 21.2736 22.1476 22.1848 22.6032C23.0961 23.0588 23.8887 23.7204 24.5 24.5354" stroke="white" stroke-width="2" stroke-linecap="round" stroke-linejoin="round"/>
<path d="M19.25 10.5354C21.183 10.5354 22.75 8.9684 22.75 7.0354C22.75 5.1024 21.183 3.5354 19.25 3.5354C17.317 3.5354 15.75 5.1024 15.75 7.0354C15.75 8.9684 17.317 10.5354 19.25 10.5354Z" fill="white" stroke="white" stroke-width="2" stroke-linecap="round" stroke-linejoin="round"/>
<path d="M14 13.1604C14.6113 12.3454 15.4039 11.6838 16.3152 11.2282C17.2264 10.7726 18.2312 10.5354 19.25 10.5354C20.2688 10.5354 21.2736 10.7726 22.1848 11.2282C23.0961 11.6838 23.8887 12.3454 24.5 13.1604" stroke="white" stroke-width="2" stroke-linecap="round" stroke-linejoin="round"/>
</svg>
