<svg width="26" height="24" viewBox="0 0 26 24" fill="none" xmlns="http://www.w3.org/2000/svg">
<path d="M4.13721 23.675C5.10951 22.1837 6.4385 20.9585 8.0038 20.1105C9.56909 19.2624 11.3212 18.8183 13.1015 18.8183C14.8818 18.8183 16.6339 19.2624 18.1992 20.1105C19.7645 20.9585 21.0935 22.1837 22.0658 23.675" fill="#4F7C95"/>
<path d="M18.1181 7.42267C19.0095 8.39608 19.5984 9.6078 19.8131 10.9101C20.0278 12.2124 19.8589 13.5491 19.3271 14.7571C18.7954 15.9651 17.9236 16.9923 16.8182 17.7135C15.7128 18.4347 14.4214 18.8187 13.1015 18.8187C11.7816 18.8187 10.4902 18.4347 9.3848 17.7135C8.27936 16.9923 7.40762 15.9651 6.87584 14.7571C6.34406 13.5491 6.17522 12.2124 6.3899 10.9101C6.60458 9.6078 7.19351 8.39608 8.08489 7.42267" fill="#165DAA" fill-opacity="0.28"/>
<path d="M18.1181 7.42267C19.0095 8.39608 19.5984 9.6078 19.8131 10.9101C20.0278 12.2124 19.8589 13.5491 19.3271 14.7571C18.7954 15.9651 17.9236 16.9923 16.8182 17.7135C15.7128 18.4347 14.4214 18.8187 13.1015 18.8187C11.7816 18.8187 10.4902 18.4347 9.3848 17.7135C8.27936 16.9923 7.40762 15.9651 6.87584 14.7571C6.34406 13.5491 6.17522 12.2124 6.3899 10.9101C6.60458 9.6078 7.19351 8.39608 8.08489 7.42267" stroke="#4F7C95" stroke-width="2" stroke-linecap="round" stroke-linejoin="round"/>
<path d="M1.44043 5.21198V14.9294" stroke="#4F7C95" stroke-width="2" stroke-linecap="round" stroke-linejoin="round"/>
<path d="M24.7622 5.21194L13.1013 9.09889L1.44043 5.21194L13.1013 1.32498L24.7622 5.21194Z" fill="#4F7C95" stroke="#4F7C95" stroke-width="2" stroke-linecap="round" stroke-linejoin="round"/>
</svg>
