<svg width="26" height="24" viewBox="0 0 26 24" fill="none" xmlns="http://www.w3.org/2000/svg">
<path d="M4.13867 23.675C5.11097 22.1837 6.43997 20.9585 8.00526 20.1105C9.57056 19.2624 11.3227 18.8183 13.103 18.8183C14.8832 18.8183 16.6354 19.2624 18.2007 20.1105C19.766 20.9585 21.095 22.1837 22.0673 23.675" fill="#4F7C95"/>
<path d="M18.1196 7.42267C19.0109 8.39608 19.5999 9.6078 19.8145 10.9101C20.0292 12.2124 19.8604 13.5491 19.3286 14.7571C18.7968 15.9651 17.9251 16.9923 16.8197 17.7135C15.7142 18.4347 14.4228 18.8187 13.103 18.8187C11.7831 18.8187 10.4917 18.4347 9.38626 17.7135C8.28082 16.9923 7.40908 15.9651 6.8773 14.7571C6.34552 13.5491 6.17668 12.2124 6.39137 10.9101C6.60605 9.6078 7.19497 8.39608 8.08635 7.42267" fill="#165DAA" fill-opacity="0.28"/>
<path d="M18.1196 7.42267C19.0109 8.39608 19.5999 9.6078 19.8145 10.9101C20.0292 12.2124 19.8604 13.5491 19.3286 14.7571C18.7968 15.9651 17.9251 16.9923 16.8197 17.7135C15.7142 18.4347 14.4228 18.8187 13.103 18.8187C11.7831 18.8187 10.4917 18.4347 9.38626 17.7135C8.28082 16.9923 7.40908 15.9651 6.8773 14.7571C6.34552 13.5491 6.17668 12.2124 6.39137 10.9101C6.60605 9.6078 7.19497 8.39608 8.08635 7.42267" stroke="#4F7C95" stroke-width="2" stroke-linecap="round" stroke-linejoin="round"/>
<path d="M1.44141 5.21198V14.9294" stroke="#4F7C95" stroke-width="2" stroke-linecap="round" stroke-linejoin="round"/>
<path d="M24.7631 5.21194L13.1023 9.09889L1.44141 5.21194L13.1023 1.32498L24.7631 5.21194Z" fill="#4F7C95" stroke="#4F7C95" stroke-width="2" stroke-linecap="round" stroke-linejoin="round"/>
</svg>
