<svg width="28" height="27" viewBox="0 0 28 27" fill="none" xmlns="http://www.w3.org/2000/svg">
<path d="M23.3826 7.59375H4.82007C4.35408 7.59375 3.97632 7.97151 3.97632 8.4375V21.9375C3.97632 22.4035 4.35408 22.7812 4.82007 22.7812H23.3826C23.8486 22.7812 24.2263 22.4035 24.2263 21.9375V8.4375C24.2263 7.97151 23.8486 7.59375 23.3826 7.59375Z" fill="#4F7C95" stroke="#4F7C95" stroke-linecap="round" stroke-linejoin="round"/>
<path d="M18.3201 7.59375V5.90625C18.3201 5.4587 18.1423 5.02947 17.8258 4.71301C17.5093 4.39654 17.0801 4.21875 16.6326 4.21875H11.5701C11.1225 4.21875 10.6933 4.39654 10.3768 4.71301C10.0604 5.02947 9.88257 5.4587 9.88257 5.90625V7.59375" stroke="#4F7C95" stroke-linecap="round" stroke-linejoin="round"/>
<path d="M24.2263 13.3208C21.149 15.1005 17.6562 16.0356 14.1013 16.0313C10.5458 16.0406 7.05165 15.1052 3.97632 13.3208" stroke="white" stroke-linecap="round" stroke-linejoin="round"/>
<path d="M12.8357 12.6562H15.3669" stroke="white" stroke-linecap="round" stroke-linejoin="round"/>
</svg>
