<svg width="15" height="16" viewBox="0 0 15 16" fill="none" xmlns="http://www.w3.org/2000/svg">
<path d="M7.5 13.625C10.6066 13.625 13.125 11.1066 13.125 8C13.125 4.8934 10.6066 2.375 7.5 2.375C4.3934 2.375 1.875 4.8934 1.875 8C1.875 11.1066 4.3934 13.625 7.5 13.625Z" stroke="#707070" stroke-width="1.5" stroke-miterlimit="10"/>
<path d="M12.5488 10.4827L9.36793 8.52632C9.31218 8.49203 9.24985 8.46979 9.18498 8.46105L7.84795 8.28081C7.74755 8.26728 7.64547 8.28664 7.55699 8.33598C7.46852 8.38533 7.39841 8.46202 7.35717 8.55455L6.55451 10.3556C6.51718 10.4394 6.50524 10.5322 6.52017 10.6227C6.53509 10.7132 6.57623 10.7973 6.63848 10.8646L7.74003 12.0561C7.78997 12.1101 7.8265 12.1752 7.84665 12.2459C7.86681 12.3166 7.87003 12.3911 7.85606 12.4634L7.63169 13.6233C8.76612 13.5603 11.3377 12.8439 12.5488 10.4827Z" fill="#707070" stroke="#707070" stroke-linecap="round" stroke-linejoin="round"/>
<path d="M8.93301 2.55955L9.47991 3.53914C9.53161 3.63174 9.55037 3.73915 9.53314 3.8438C9.51591 3.94845 9.4637 4.04416 9.38504 4.1153L7.80823 5.54133C7.78147 5.56553 7.752 5.58656 7.72041 5.604L7.00312 6.00012C6.93374 6.03843 6.85578 6.05853 6.77652 6.05853H5.52581C5.43358 6.05853 5.3434 6.08574 5.26656 6.13675C5.18972 6.18776 5.12963 6.26031 5.09383 6.34531L4.6059 7.50361" fill="#707070"/>
<path d="M3.80572 3.7582L3.28165 4.99744C3.23492 5.10794 3.23234 5.23214 3.27443 5.34449L3.94772 7.14145C3.97529 7.21504 4.02092 7.28051 4.08041 7.33185C4.1399 7.3832 4.21135 7.41876 4.28817 7.43527L5.54383 7.70515C5.61351 7.72012 5.67885 7.75079 5.73489 7.79481C5.79094 7.83883 5.8362 7.89505 5.86725 7.9592L6.09024 8.41986C6.12861 8.49914 6.18855 8.566 6.26317 8.61278C6.33779 8.65957 6.42408 8.68438 6.51216 8.68438H7.29922" fill="#707070"/>
<path d="M8.93301 2.55955L9.47991 3.53914C9.53161 3.63174 9.55037 3.73915 9.53314 3.8438C9.51591 3.94845 9.4637 4.04416 9.38504 4.1153L7.80823 5.54133C7.78147 5.56553 7.752 5.58656 7.72041 5.604L7.00312 6.00012C6.93374 6.03843 6.85578 6.05853 6.77652 6.05853H5.52581C5.43358 6.05853 5.3434 6.08574 5.26656 6.13675C5.18972 6.18776 5.12963 6.26031 5.09383 6.34531L4.6059 7.50361L4.28817 7.43527C4.21135 7.41876 4.1399 7.3832 4.08041 7.33185C4.02092 7.28051 3.97529 7.21504 3.94772 7.14145L3.27443 5.34449C3.23234 5.23214 3.23492 5.10794 3.28165 4.99744L3.80572 3.7582C4.43001 3.10764 6.32947 1.95713 8.93301 2.55955Z" fill="#707070"/>
<path d="M4.28817 7.43527C4.21135 7.41876 4.1399 7.3832 4.08041 7.33185C4.02092 7.28051 3.97529 7.21504 3.94772 7.14145L3.27443 5.34449C3.23234 5.23214 3.23492 5.10794 3.28165 4.99744L3.80572 3.7582C4.43001 3.10764 6.32947 1.95713 8.93301 2.55955L9.47991 3.53914C9.53161 3.63174 9.55037 3.73915 9.53314 3.8438C9.51591 3.94845 9.4637 4.04416 9.38504 4.1153L7.80823 5.54133C7.78147 5.56553 7.752 5.58656 7.72041 5.604L7.00312 6.00012C6.93374 6.03843 6.85578 6.05853 6.77652 6.05853H5.52581C5.43358 6.05853 5.3434 6.08574 5.26656 6.13675C5.18972 6.18776 5.12963 6.26031 5.09383 6.34531L4.6059 7.50361L4.28817 7.43527ZM4.28817 7.43527L5.54383 7.70515C5.61351 7.72012 5.67885 7.75079 5.73489 7.79481C5.79094 7.83883 5.8362 7.89505 5.86725 7.9592L6.09024 8.41986C6.12861 8.49914 6.18855 8.566 6.26317 8.61278C6.33779 8.65957 6.42408 8.68438 6.51216 8.68438H7.29922" stroke="#707070" stroke-linecap="round" stroke-linejoin="round"/>
</svg>
