<svg width="15" height="16" viewBox="0 0 15 16" fill="none" xmlns="http://www.w3.org/2000/svg">
<path d="M7.5 13.6602C10.6066 13.6602 13.125 11.1418 13.125 8.03516C13.125 4.92855 10.6066 2.41016 7.5 2.41016C4.3934 2.41016 1.875 4.92855 1.875 8.03516C1.875 11.1418 4.3934 13.6602 7.5 13.6602Z" stroke="#707070" stroke-width="1.5" stroke-miterlimit="10"/>
<path d="M12.5485 10.5181L9.36769 8.56172C9.31193 8.52743 9.24961 8.50519 9.18474 8.49645L7.84771 8.31621C7.74731 8.30268 7.64523 8.32204 7.55675 8.37139C7.46828 8.42073 7.39817 8.49742 7.35693 8.58995L6.55427 10.391C6.51694 10.4748 6.505 10.5676 6.51992 10.6581C6.53485 10.7486 6.57598 10.8327 6.63823 10.9L7.73979 12.0915C7.78973 12.1455 7.82625 12.2106 7.84641 12.2813C7.86657 12.352 7.86979 12.4265 7.85582 12.4988L7.63144 13.6587C8.76588 13.5957 11.3375 12.8793 12.5485 10.5181Z" fill="#707070" stroke="#707070" stroke-linecap="round" stroke-linejoin="round"/>
<path d="M8.93301 2.59446L9.47991 3.57405C9.53161 3.66666 9.55037 3.77406 9.53314 3.87871C9.51591 3.98336 9.4637 4.07907 9.38504 4.15021L7.80823 5.57624C7.78147 5.60044 7.752 5.62147 7.72041 5.63892L7.00312 6.03503C6.93374 6.07335 6.85578 6.09344 6.77652 6.09344H5.52581C5.43358 6.09344 5.3434 6.12065 5.26656 6.17166C5.18972 6.22268 5.12963 6.29522 5.09383 6.38022L4.6059 7.53852" fill="#707070"/>
<path d="M3.80572 3.79311L3.28165 5.03235C3.23492 5.14285 3.23234 5.26706 3.27443 5.3794L3.94772 7.17636C3.97529 7.24995 4.02092 7.31542 4.08041 7.36677C4.1399 7.41811 4.21135 7.45367 4.28817 7.47018L5.54383 7.74006C5.61351 7.75503 5.67885 7.7857 5.73489 7.82972C5.79094 7.87374 5.8362 7.92997 5.86725 7.99411L6.09024 8.45477C6.12861 8.53405 6.18855 8.60091 6.26317 8.64769C6.33779 8.69448 6.42408 8.71929 6.51216 8.71929H7.29922" fill="#707070"/>
<path d="M8.93301 2.59446L9.47991 3.57405C9.53161 3.66666 9.55037 3.77406 9.53314 3.87871C9.51591 3.98336 9.4637 4.07907 9.38504 4.15021L7.80823 5.57624C7.78147 5.60044 7.752 5.62147 7.72041 5.63892L7.00312 6.03503C6.93374 6.07335 6.85578 6.09344 6.77652 6.09344H5.52581C5.43358 6.09344 5.3434 6.12065 5.26656 6.17166C5.18972 6.22268 5.12963 6.29522 5.09383 6.38022L4.6059 7.53852L4.28817 7.47018C4.21135 7.45367 4.1399 7.41811 4.08041 7.36677C4.02092 7.31542 3.97529 7.24995 3.94772 7.17636L3.27443 5.3794C3.23234 5.26706 3.23492 5.14285 3.28165 5.03235L3.80572 3.79311C4.43001 3.14255 6.32947 1.99204 8.93301 2.59446Z" fill="#707070"/>
<path d="M4.28817 7.47018C4.21135 7.45367 4.1399 7.41811 4.08041 7.36677C4.02092 7.31542 3.97529 7.24995 3.94772 7.17636L3.27443 5.3794C3.23234 5.26706 3.23492 5.14285 3.28165 5.03235L3.80572 3.79311C4.43001 3.14255 6.32947 1.99204 8.93301 2.59446L9.47991 3.57405C9.53161 3.66666 9.55037 3.77406 9.53314 3.87871C9.51591 3.98336 9.4637 4.07907 9.38504 4.15021L7.80823 5.57624C7.78147 5.60044 7.752 5.62147 7.72041 5.63892L7.00312 6.03503C6.93374 6.07335 6.85578 6.09344 6.77652 6.09344H5.52581C5.43358 6.09344 5.3434 6.12065 5.26656 6.17166C5.18972 6.22268 5.12963 6.29522 5.09383 6.38022L4.6059 7.53852L4.28817 7.47018ZM4.28817 7.47018L5.54383 7.74006C5.61351 7.75503 5.67885 7.7857 5.73489 7.82972C5.79094 7.87374 5.8362 7.92996 5.86725 7.99411L6.09024 8.45477C6.12861 8.53405 6.18855 8.60091 6.26317 8.64769C6.33779 8.69448 6.42408 8.71929 6.51216 8.71929H7.29922" stroke="#707070" stroke-linecap="round" stroke-linejoin="round"/>
</svg>
