<svg width="15" height="16" viewBox="0 0 15 16" fill="none" xmlns="http://www.w3.org/2000/svg">
<path d="M7.5 13.625C10.6066 13.625 13.125 11.1066 13.125 8C13.125 4.8934 10.6066 2.375 7.5 2.375C4.3934 2.375 1.875 4.8934 1.875 8C1.875 11.1066 4.3934 13.625 7.5 13.625Z" stroke="#707070" stroke-width="1.5" stroke-miterlimit="10"/>
<path d="M12.5485 10.4827L9.36769 8.5264C9.31193 8.4921 9.24961 8.46987 9.18474 8.46112L7.84771 8.28089C7.74731 8.26736 7.64523 8.28671 7.55675 8.33606C7.46828 8.38541 7.39817 8.46209 7.35693 8.55463L6.55427 10.3557C6.51694 10.4395 6.505 10.5323 6.51992 10.6228C6.53485 10.7133 6.57598 10.7974 6.63823 10.8647L7.73979 12.0562C7.78973 12.1102 7.82625 12.1752 7.84641 12.246C7.86657 12.3167 7.86979 12.3912 7.85582 12.4634L7.63144 13.6234C8.76588 13.5604 11.3375 12.844 12.5485 10.4827Z" fill="#707070" stroke="#707070" stroke-linecap="round" stroke-linejoin="round"/>
<path d="M8.93301 2.55948L9.47991 3.53908C9.53161 3.63168 9.55037 3.73908 9.53314 3.84373C9.51591 3.94839 9.4637 4.0441 9.38504 4.11524L7.80823 5.54127C7.78147 5.56547 7.752 5.5865 7.72041 5.60394L7.00312 6.00006C6.93374 6.03837 6.85578 6.05847 6.77652 6.05847H5.52581C5.43358 6.05847 5.3434 6.08568 5.26656 6.13669C5.18972 6.1877 5.12963 6.26025 5.09383 6.34525L4.6059 7.50355" fill="#707070"/>
<path d="M3.80572 3.75814L3.28165 4.99738C3.23492 5.10788 3.23234 5.23208 3.27443 5.34443L3.94772 7.14139C3.97529 7.21498 4.02092 7.28045 4.08041 7.33179C4.1399 7.38313 4.21135 7.4187 4.28817 7.43521L5.54383 7.70509C5.61351 7.72006 5.67885 7.75073 5.73489 7.79475C5.79094 7.83877 5.8362 7.89499 5.86725 7.95914L6.09024 8.4198C6.12861 8.49908 6.18855 8.56594 6.26317 8.61272C6.33779 8.6595 6.42408 8.68432 6.51216 8.68432H7.29922" fill="#707070"/>
<path d="M8.93301 2.55948L9.47991 3.53908C9.53161 3.63168 9.55037 3.73908 9.53314 3.84373C9.51591 3.94839 9.4637 4.0441 9.38504 4.11524L7.80823 5.54127C7.78147 5.56547 7.752 5.5865 7.72041 5.60394L7.00312 6.00006C6.93374 6.03837 6.85578 6.05847 6.77652 6.05847H5.52581C5.43358 6.05847 5.3434 6.08568 5.26656 6.13669C5.18972 6.1877 5.12963 6.26025 5.09383 6.34525L4.6059 7.50355L4.28817 7.43521C4.21135 7.4187 4.1399 7.38313 4.08041 7.33179C4.02092 7.28045 3.97529 7.21498 3.94772 7.14139L3.27443 5.34443C3.23234 5.23208 3.23492 5.10788 3.28165 4.99738L3.80572 3.75814C4.43001 3.10758 6.32947 1.95707 8.93301 2.55948Z" fill="#707070"/>
<path d="M4.28817 7.43521C4.21135 7.4187 4.1399 7.38313 4.08041 7.33179C4.02092 7.28045 3.97529 7.21498 3.94772 7.14139L3.27443 5.34443C3.23234 5.23208 3.23492 5.10788 3.28165 4.99738L3.80572 3.75814C4.43001 3.10758 6.32947 1.95707 8.93301 2.55948L9.47991 3.53908C9.53161 3.63168 9.55037 3.73908 9.53314 3.84373C9.51591 3.94839 9.4637 4.0441 9.38504 4.11524L7.80823 5.54127C7.78147 5.56547 7.752 5.5865 7.72041 5.60394L7.00312 6.00006C6.93374 6.03837 6.85578 6.05847 6.77652 6.05847H5.52581C5.43358 6.05847 5.3434 6.08568 5.26656 6.13669C5.18972 6.1877 5.12963 6.26025 5.09383 6.34525L4.6059 7.50355L4.28817 7.43521ZM4.28817 7.43521L5.54383 7.70509C5.61351 7.72006 5.67885 7.75073 5.73489 7.79475C5.79094 7.83877 5.8362 7.89499 5.86725 7.95914L6.09024 8.4198C6.12861 8.49908 6.18855 8.56594 6.26317 8.61272C6.33779 8.6595 6.42408 8.68432 6.51216 8.68432H7.29922" stroke="#707070" stroke-linecap="round" stroke-linejoin="round"/>
</svg>
