<svg width="15" height="16" viewBox="0 0 15 16" fill="none" xmlns="http://www.w3.org/2000/svg">
<path d="M7.5 13.6604C10.6066 13.6604 13.125 11.142 13.125 8.0354C13.125 4.9288 10.6066 2.4104 7.5 2.4104C4.3934 2.4104 1.875 4.9288 1.875 8.0354C1.875 11.142 4.3934 13.6604 7.5 13.6604Z" stroke="#707070" stroke-width="1.5" stroke-miterlimit="10"/>
<path d="M12.5485 10.5181L9.36769 8.56172C9.31193 8.52743 9.24961 8.50519 9.18474 8.49645L7.84771 8.31621C7.74731 8.30268 7.64523 8.32204 7.55675 8.37139C7.46828 8.42073 7.39817 8.49742 7.35693 8.58995L6.55427 10.391C6.51694 10.4748 6.505 10.5676 6.51992 10.6581C6.53485 10.7486 6.57598 10.8327 6.63823 10.9L7.73979 12.0915C7.78973 12.1455 7.82625 12.2106 7.84641 12.2813C7.86657 12.352 7.86979 12.4265 7.85582 12.4988L7.63144 13.6587C8.76588 13.5957 11.3375 12.8793 12.5485 10.5181Z" fill="#707070" stroke="#707070" stroke-linecap="round" stroke-linejoin="round"/>
<path d="M8.93301 2.59495L9.47991 3.57454C9.53161 3.66714 9.55037 3.77455 9.53314 3.8792C9.51591 3.98385 9.4637 4.07956 9.38504 4.1507L7.80823 5.57673C7.78147 5.60093 7.752 5.62196 7.72041 5.6394L7.00312 6.03552C6.93374 6.07383 6.85578 6.09393 6.77652 6.09393H5.52581C5.43358 6.09393 5.3434 6.12114 5.26656 6.17215C5.18972 6.22316 5.12963 6.29571 5.09383 6.38071L4.6059 7.53901" fill="#707070"/>
<path d="M3.80572 3.7936L3.28165 5.03284C3.23492 5.14334 3.23234 5.26754 3.27443 5.37989L3.94772 7.17685C3.97529 7.25044 4.02092 7.31591 4.08041 7.36725C4.1399 7.4186 4.21135 7.45416 4.28817 7.47067L5.54383 7.74055C5.61351 7.75552 5.67885 7.78619 5.73489 7.83021C5.79094 7.87423 5.8362 7.93045 5.86725 7.9946L6.09024 8.45526C6.12861 8.53454 6.18855 8.6014 6.26317 8.64818C6.33779 8.69497 6.42408 8.71978 6.51216 8.71978H7.29922" fill="#707070"/>
<path d="M8.93301 2.59495L9.47991 3.57454C9.53161 3.66714 9.55037 3.77455 9.53314 3.8792C9.51591 3.98385 9.4637 4.07956 9.38504 4.1507L7.80823 5.57673C7.78147 5.60093 7.752 5.62196 7.72041 5.6394L7.00312 6.03552C6.93374 6.07383 6.85578 6.09393 6.77652 6.09393H5.52581C5.43358 6.09393 5.3434 6.12114 5.26656 6.17215C5.18972 6.22316 5.12963 6.29571 5.09383 6.38071L4.6059 7.53901L4.28817 7.47067C4.21135 7.45416 4.1399 7.4186 4.08041 7.36725C4.02092 7.31591 3.97529 7.25044 3.94772 7.17685L3.27443 5.37989C3.23234 5.26754 3.23492 5.14334 3.28165 5.03284L3.80572 3.7936C4.43001 3.14304 6.32947 1.99253 8.93301 2.59495Z" fill="#707070"/>
<path d="M4.28817 7.47067C4.21135 7.45416 4.1399 7.4186 4.08041 7.36725C4.02092 7.31591 3.97529 7.25044 3.94772 7.17685L3.27443 5.37989C3.23234 5.26754 3.23492 5.14334 3.28165 5.03284L3.80572 3.7936C4.43001 3.14304 6.32947 1.99253 8.93301 2.59495L9.47991 3.57454C9.53161 3.66714 9.55037 3.77455 9.53314 3.8792C9.51591 3.98385 9.4637 4.07956 9.38504 4.1507L7.80823 5.57673C7.78147 5.60093 7.752 5.62196 7.72041 5.6394L7.00312 6.03552C6.93374 6.07383 6.85578 6.09393 6.77652 6.09393H5.52581C5.43358 6.09393 5.3434 6.12114 5.26656 6.17215C5.18972 6.22316 5.12963 6.29571 5.09383 6.38071L4.6059 7.53901L4.28817 7.47067ZM4.28817 7.47067L5.54383 7.74055C5.61351 7.75552 5.67885 7.78619 5.73489 7.83021C5.79094 7.87423 5.8362 7.93045 5.86725 7.9946L6.09024 8.45526C6.12861 8.53454 6.18855 8.6014 6.26317 8.64818C6.33779 8.69497 6.42408 8.71978 6.51216 8.71978H7.29922" stroke="#707070" stroke-linecap="round" stroke-linejoin="round"/>
</svg>
