<svg width="15" height="16" viewBox="0 0 15 16" fill="none" xmlns="http://www.w3.org/2000/svg">
<path d="M7.5 13.625C10.6066 13.625 13.125 11.1066 13.125 8C13.125 4.8934 10.6066 2.375 7.5 2.375C4.3934 2.375 1.875 4.8934 1.875 8C1.875 11.1066 4.3934 13.625 7.5 13.625Z" stroke="#707070" stroke-width="1.5" stroke-miterlimit="10"/>
<path d="M12.5488 10.4828L9.36793 8.52644C9.31218 8.49215 9.24985 8.46991 9.18498 8.46117L7.84795 8.28094C7.74755 8.2674 7.64547 8.28676 7.55699 8.33611C7.46852 8.38546 7.39841 8.46214 7.35717 8.55467L6.55451 10.3557C6.51718 10.4395 6.50524 10.5324 6.52017 10.6228C6.53509 10.7133 6.57623 10.7974 6.63848 10.8648L7.74003 12.0563C7.78997 12.1103 7.8265 12.1753 7.84665 12.246C7.86681 12.3168 7.87003 12.3913 7.85606 12.4635L7.63169 13.6234C8.76612 13.5604 11.3377 12.844 12.5488 10.4828Z" fill="#707070" stroke="#707070" stroke-linecap="round" stroke-linejoin="round"/>
<path d="M8.93301 2.55942L9.47991 3.53902C9.53161 3.63162 9.55037 3.73902 9.53314 3.84367C9.51591 3.94832 9.4637 4.04404 9.38504 4.11518L7.80823 5.54121C7.78147 5.56541 7.752 5.58644 7.72041 5.60388L7.00312 6C6.93374 6.03831 6.85578 6.05841 6.77652 6.05841H5.52581C5.43358 6.05841 5.3434 6.08562 5.26656 6.13663C5.18972 6.18764 5.12963 6.26019 5.09383 6.34519L4.6059 7.50349" fill="#707070"/>
<path d="M3.80572 3.75808L3.28165 4.99732C3.23492 5.10782 3.23234 5.23202 3.27443 5.34437L3.94772 7.14133C3.97529 7.21492 4.02092 7.28039 4.08041 7.33173C4.1399 7.38307 4.21135 7.41864 4.28817 7.43515L5.54383 7.70503C5.61351 7.72 5.67885 7.75066 5.73489 7.79469C5.79094 7.83871 5.8362 7.89493 5.86725 7.95908L6.09024 8.41974C6.12861 8.49902 6.18855 8.56588 6.26317 8.61266C6.33779 8.65944 6.42408 8.68426 6.51216 8.68426H7.29922" fill="#707070"/>
<path d="M8.93301 2.55942L9.47991 3.53902C9.53161 3.63162 9.55037 3.73902 9.53314 3.84367C9.51591 3.94832 9.4637 4.04404 9.38504 4.11518L7.80823 5.54121C7.78147 5.56541 7.752 5.58644 7.72041 5.60388L7.00312 6C6.93374 6.03831 6.85578 6.05841 6.77652 6.05841H5.52581C5.43358 6.05841 5.3434 6.08562 5.26656 6.13663C5.18972 6.18764 5.12963 6.26019 5.09383 6.34519L4.6059 7.50349L4.28817 7.43515C4.21135 7.41864 4.1399 7.38307 4.08041 7.33173C4.02092 7.28039 3.97529 7.21492 3.94772 7.14133L3.27443 5.34437C3.23234 5.23202 3.23492 5.10782 3.28165 4.99732L3.80572 3.75808C4.43001 3.10752 6.32947 1.95701 8.93301 2.55942Z" fill="#707070"/>
<path d="M4.28817 7.43515C4.21135 7.41864 4.1399 7.38307 4.08041 7.33173C4.02092 7.28039 3.97529 7.21492 3.94772 7.14133L3.27443 5.34437C3.23234 5.23202 3.23492 5.10782 3.28165 4.99732L3.80572 3.75808C4.43001 3.10752 6.32947 1.95701 8.93301 2.55942L9.47991 3.53902C9.53161 3.63162 9.55037 3.73902 9.53314 3.84367C9.51591 3.94832 9.4637 4.04404 9.38504 4.11518L7.80823 5.54121C7.78147 5.56541 7.752 5.58644 7.72041 5.60388L7.00312 6C6.93374 6.03831 6.85578 6.05841 6.77652 6.05841H5.52581C5.43358 6.05841 5.3434 6.08562 5.26656 6.13663C5.18972 6.18764 5.12963 6.26019 5.09383 6.34519L4.6059 7.50349L4.28817 7.43515ZM4.28817 7.43515L5.54383 7.70503C5.61351 7.72 5.67885 7.75066 5.73489 7.79469C5.79094 7.83871 5.8362 7.89493 5.86725 7.95908L6.09024 8.41974C6.12861 8.49902 6.18855 8.56588 6.26317 8.61266C6.33779 8.65944 6.42408 8.68426 6.51216 8.68426H7.29922" stroke="#707070" stroke-linecap="round" stroke-linejoin="round"/>
</svg>
