<svg width="20" height="20" viewBox="0 0 20 20" fill="none" xmlns="http://www.w3.org/2000/svg">
<path d="M13.3335 6.66669C14.6596 6.66669 15.9313 7.19347 16.869 8.13115C17.8067 9.06884 18.3335 10.3406 18.3335 11.6667V17.5H15.0002V11.6667C15.0002 11.2247 14.8246 10.8007 14.512 10.4882C14.1994 10.1756 13.7755 10 13.3335 10C12.8915 10 12.4675 10.1756 12.155 10.4882C11.8424 10.8007 11.6668 11.2247 11.6668 11.6667V17.5H8.3335V11.6667C8.3335 10.3406 8.86028 9.06884 9.79796 8.13115C10.7356 7.19347 12.0074 6.66669 13.3335 6.66669Z" fill="#463352"/>
<path d="M4.99984 7.5H1.6665V17.5H4.99984V7.5Z" fill="#463352"/>
<path d="M3.33317 5.00002C4.25365 5.00002 4.99984 4.25383 4.99984 3.33335C4.99984 2.41288 4.25365 1.66669 3.33317 1.66669C2.4127 1.66669 1.6665 2.41288 1.6665 3.33335C1.6665 4.25383 2.4127 5.00002 3.33317 5.00002Z" fill="#463352"/>
</svg>
