<svg width="33" height="14" viewBox="0 0 33 14" fill="none" xmlns="http://www.w3.org/2000/svg">
<path d="M8.5 8.0354C9.32843 8.0354 10 7.36383 10 6.5354C10 5.70697 9.32843 5.0354 8.5 5.0354C7.67157 5.0354 7 5.70697 7 6.5354C7 7.36383 7.67157 8.0354 8.5 8.0354Z" fill="#707070" stroke="#707070" stroke-linecap="round" stroke-linejoin="round"/>
<path d="M16.5 8.0354C17.3284 8.0354 18 7.36383 18 6.5354C18 5.70697 17.3284 5.0354 16.5 5.0354C15.6716 5.0354 15 5.70697 15 6.5354C15 7.36383 15.6716 8.0354 16.5 8.0354Z" fill="#707070" stroke="#707070" stroke-linecap="round" stroke-linejoin="round"/>
<path d="M24.5 8.0354C25.3284 8.0354 26 7.36383 26 6.5354C26 5.70697 25.3284 5.0354 24.5 5.0354C23.6716 5.0354 23 5.70697 23 6.5354C23 7.36383 23.6716 8.0354 24.5 8.0354Z" fill="#707070" stroke="#707070" stroke-linecap="round" stroke-linejoin="round"/>
</svg>
