<svg width="33" height="14" viewBox="0 0 33 14" fill="none" xmlns="http://www.w3.org/2000/svg">
<path d="M8.5 8.03516C9.32843 8.03516 10 7.36358 10 6.53516C10 5.70673 9.32843 5.03516 8.5 5.03516C7.67157 5.03516 7 5.70673 7 6.53516C7 7.36358 7.67157 8.03516 8.5 8.03516Z" fill="#707070" stroke="#707070" stroke-linecap="round" stroke-linejoin="round"/>
<path d="M16.5 8.03516C17.3284 8.03516 18 7.36358 18 6.53516C18 5.70673 17.3284 5.03516 16.5 5.03516C15.6716 5.03516 15 5.70673 15 6.53516C15 7.36358 15.6716 8.03516 16.5 8.03516Z" fill="#707070" stroke="#707070" stroke-linecap="round" stroke-linejoin="round"/>
<path d="M24.5 8.03516C25.3284 8.03516 26 7.36358 26 6.53516C26 5.70673 25.3284 5.03516 24.5 5.03516C23.6716 5.03516 23 5.70673 23 6.53516C23 7.36358 23.6716 8.03516 24.5 8.03516Z" fill="#707070" stroke="#707070" stroke-linecap="round" stroke-linejoin="round"/>
</svg>
