<svg width="12" height="13" viewBox="0 0 12 13" fill="none" xmlns="http://www.w3.org/2000/svg">
<path d="M6.26701 10.4678L10.0639 6.67091C10.9967 5.73341 11.1326 4.2006 10.2514 3.22091C10.0304 2.97403 9.76135 2.7748 9.46074 2.63539C9.16014 2.49599 8.83426 2.41934 8.50303 2.41012C8.17181 2.40091 7.84218 2.45933 7.53429 2.58181C7.2264 2.70429 6.94671 2.88826 6.71232 3.12248L5.99982 3.83966L5.38576 3.22091C4.44826 2.2881 2.91545 2.15216 1.93576 3.03341C1.68887 3.25442 1.48964 3.52345 1.35023 3.82405C1.21083 4.12466 1.13418 4.45053 1.12497 4.78176C1.11575 5.11299 1.17417 5.44262 1.29665 5.75051C1.41913 6.0584 1.6031 6.33809 1.83732 6.57248L5.73263 10.4678C5.80373 10.5382 5.89975 10.5777 5.99982 10.5777C6.09989 10.5777 6.19591 10.5382 6.26701 10.4678V10.4678Z" stroke="#424242" stroke-linecap="round" stroke-linejoin="round"/>
</svg>
