<svg width="12" height="13" viewBox="0 0 12 13" fill="none" xmlns="http://www.w3.org/2000/svg">
<path d="M6.26701 10.4328L10.0639 6.63588C10.9967 5.69838 11.1326 4.16557 10.2514 3.18588C10.0304 2.93899 9.76135 2.73976 9.46074 2.60036C9.16014 2.46095 8.83426 2.3843 8.50303 2.37509C8.17181 2.36587 7.84218 2.42429 7.53429 2.54677C7.2264 2.66925 6.94671 2.85322 6.71232 3.08744L5.99982 3.80463L5.38576 3.18588C4.44826 2.25307 2.91545 2.11713 1.93576 2.99838C1.68887 3.21939 1.48964 3.48842 1.35023 3.78902C1.21083 4.08963 1.13418 4.4155 1.12497 4.74673C1.11575 5.07796 1.17417 5.40759 1.29665 5.71548C1.41913 6.02337 1.6031 6.30305 1.83732 6.53744L5.73263 10.4328C5.80373 10.5032 5.89975 10.5427 5.99982 10.5427C6.09989 10.5427 6.19591 10.5032 6.26701 10.4328V10.4328Z" stroke="#424242" stroke-linecap="round" stroke-linejoin="round"/>
</svg>
