<svg width="16" height="17" viewBox="0 0 16 17" fill="none" xmlns="http://www.w3.org/2000/svg">
<path d="M3.52029 11.439C2.81446 10.2482 2.56757 8.84067 2.82597 7.4807C3.08437 6.12073 3.83028 4.90184 4.92368 4.05286C6.01708 3.20388 7.38277 2.78319 8.76436 2.86978C10.1459 2.95636 11.4484 3.54426 12.4273 4.52311C13.4061 5.50196 13.994 6.80444 14.0806 8.18603C14.1672 9.56762 13.7465 10.9333 12.8975 12.0267C12.0485 13.1201 10.8297 13.866 9.46968 14.1244C8.10971 14.3828 6.70219 14.1359 5.51135 13.4301V13.4301L3.54399 13.9871C3.46339 14.0107 3.37793 14.0122 3.29657 13.9913C3.2152 13.9705 3.14094 13.9282 3.08156 13.8688C3.02217 13.8094 2.97986 13.7352 2.95905 13.6538C2.93823 13.5725 2.93969 13.487 2.96327 13.4064L3.52029 11.439Z" stroke="#424242" stroke-linecap="round" stroke-linejoin="round"/>
<path d="M8.4152 9.24665C8.80792 9.24665 9.12629 8.92828 9.12629 8.53556C9.12629 8.14283 8.80792 7.82446 8.4152 7.82446C8.02247 7.82446 7.7041 8.14283 7.7041 8.53556C7.7041 8.92828 8.02247 9.24665 8.4152 9.24665Z" fill="#424242"/>
<path d="M5.57047 9.24665C5.9632 9.24665 6.28156 8.92828 6.28156 8.53556C6.28156 8.14283 5.9632 7.82446 5.57047 7.82446C5.17774 7.82446 4.85938 8.14283 4.85938 8.53556C4.85938 8.92828 5.17774 9.24665 5.57047 9.24665Z" fill="#424242"/>
<path d="M11.2594 9.24665C11.6522 9.24665 11.9705 8.92828 11.9705 8.53556C11.9705 8.14283 11.6522 7.82446 11.2594 7.82446C10.8667 7.82446 10.5483 8.14283 10.5483 8.53556C10.5483 8.92828 10.8667 9.24665 11.2594 9.24665Z" fill="#424242"/>
</svg>
