<svg width="12" height="13" viewBox="0 0 12 13" fill="none" xmlns="http://www.w3.org/2000/svg">
<path d="M6.26701 10.4328L10.0639 6.63594C10.9967 5.69844 11.1326 4.16563 10.2514 3.18594C10.0304 2.93906 9.76135 2.73982 9.46074 2.60042C9.16014 2.46101 8.83426 2.38436 8.50303 2.37515C8.17181 2.36594 7.84218 2.42435 7.53429 2.54683C7.2264 2.66931 6.94671 2.85328 6.71232 3.0875L5.99982 3.80469L5.38576 3.18594C4.44826 2.25313 2.91545 2.11719 1.93576 2.99844C1.68887 3.21945 1.48964 3.48848 1.35023 3.78908C1.21083 4.08969 1.13418 4.41556 1.12497 4.74679C1.11575 5.07802 1.17417 5.40765 1.29665 5.71554C1.41913 6.02343 1.6031 6.30311 1.83732 6.5375L5.73263 10.4328C5.80373 10.5032 5.89975 10.5427 5.99982 10.5427C6.09989 10.5427 6.19591 10.5032 6.26701 10.4328V10.4328Z" stroke="#424242" stroke-linecap="round" stroke-linejoin="round"/>
</svg>
