<svg width="32" height="33" viewBox="0 0 32 33" fill="none" xmlns="http://www.w3.org/2000/svg">
<path d="M12 27.75H6.00001C5.73479 27.75 5.48044 27.6446 5.2929 27.4571C5.10536 27.2696 5.00001 27.0152 5.00001 26.75V21.1625C4.99955 21.0326 5.02471 20.904 5.07404 20.7839C5.12338 20.6637 5.19591 20.5545 5.28751 20.4625L20.2875 5.4625C20.3806 5.36801 20.4915 5.29298 20.6138 5.24176C20.7361 5.19055 20.8674 5.16417 21 5.16417C21.1326 5.16417 21.2639 5.19055 21.3862 5.24176C21.5085 5.29298 21.6195 5.36801 21.7125 5.4625L27.2875 11.0375C27.382 11.1305 27.457 11.2415 27.5082 11.3638C27.5595 11.4861 27.5858 11.6174 27.5858 11.75C27.5858 11.8826 27.5595 12.0139 27.5082 12.1362C27.457 12.2585 27.382 12.3694 27.2875 12.4625L12 27.75Z" fill="#4F7C95" stroke="#4F7C95" stroke-width="2" stroke-linecap="round" stroke-linejoin="round"/>
<path d="M27 27.75H12" stroke="#4F7C95" stroke-width="2" stroke-linecap="round" stroke-linejoin="round"/>
<path d="M17 8.75L24 15.75" stroke="white" stroke-width="2" stroke-linecap="round" stroke-linejoin="round"/>
</svg>
