<svg width="12" height="13" viewBox="0 0 12 13" fill="none" xmlns="http://www.w3.org/2000/svg">
<path d="M6.26725 10.4329L10.0641 6.636C10.9969 5.6985 11.1329 4.16569 10.2516 3.186C10.0306 2.93912 9.76159 2.73988 9.46099 2.60048C9.16038 2.46107 8.83451 2.38442 8.50328 2.37521C8.17205 2.366 7.84242 2.42442 7.53453 2.5469C7.22664 2.66938 6.94696 2.85335 6.71256 3.08756L6.00006 3.80475L5.386 3.186C4.4485 2.25319 2.91569 2.11725 1.936 2.9985C1.68912 3.21951 1.48988 3.48854 1.35048 3.78914C1.21107 4.08975 1.13442 4.41562 1.12521 4.74685C1.116 5.07808 1.17442 5.40771 1.2969 5.7156C1.41938 6.02349 1.60335 6.30317 1.83756 6.53757L5.73288 10.4329C5.80397 10.5033 5.9 10.5428 6.00006 10.5428C6.10013 10.5428 6.19615 10.5033 6.26725 10.4329V10.4329Z" stroke="#424242" stroke-linecap="round" stroke-linejoin="round"/>
</svg>
