<svg width="12" height="13" viewBox="0 0 12 13" fill="none" xmlns="http://www.w3.org/2000/svg">
<path d="M6.26725 10.4328L10.0641 6.63588C10.9969 5.69838 11.1329 4.16557 10.2516 3.18588C10.0306 2.93899 9.76159 2.73976 9.46099 2.60036C9.16038 2.46095 8.83451 2.3843 8.50328 2.37509C8.17205 2.36587 7.84242 2.42429 7.53453 2.54677C7.22664 2.66925 6.94696 2.85322 6.71256 3.08744L6.00006 3.80463L5.386 3.18588C4.4485 2.25307 2.91569 2.11713 1.936 2.99838C1.68912 3.21939 1.48988 3.48842 1.35048 3.78902C1.21107 4.08963 1.13442 4.4155 1.12521 4.74673C1.116 5.07796 1.17442 5.40759 1.2969 5.71548C1.41938 6.02337 1.60335 6.30305 1.83756 6.53744L5.73288 10.4328C5.80397 10.5032 5.9 10.5427 6.00006 10.5427C6.10013 10.5427 6.19615 10.5032 6.26725 10.4328V10.4328Z" stroke="#424242" stroke-linecap="round" stroke-linejoin="round"/>
</svg>
