<svg width="12" height="13" viewBox="0 0 12 13" fill="none" xmlns="http://www.w3.org/2000/svg">
<path d="M6.26701 10.4683L10.0639 6.6714C10.9967 5.7339 11.1326 4.20109 10.2514 3.2214C10.0304 2.97452 9.76135 2.77528 9.46074 2.63588C9.16014 2.49647 8.83426 2.41982 8.50303 2.41061C8.17181 2.4014 7.84218 2.45982 7.53429 2.5823C7.2264 2.70478 6.94671 2.88875 6.71232 3.12297L5.99982 3.84015L5.38576 3.2214C4.44826 2.28859 2.91545 2.15265 1.93576 3.0339C1.68887 3.25491 1.48964 3.52394 1.35023 3.82454C1.21083 4.12515 1.13418 4.45102 1.12497 4.78225C1.11575 5.11348 1.17417 5.44311 1.29665 5.751C1.41913 6.05889 1.6031 6.33857 1.83732 6.57297L5.73263 10.4683C5.80373 10.5387 5.89975 10.5782 5.99982 10.5782C6.09989 10.5782 6.19591 10.5387 6.26701 10.4683V10.4683Z" stroke="#424242" stroke-linecap="round" stroke-linejoin="round"/>
</svg>
