<svg width="32" height="33" viewBox="0 0 32 33" fill="none" xmlns="http://www.w3.org/2000/svg">
<path d="M12 27.4999H6.00001C5.73479 27.4999 5.48044 27.3945 5.2929 27.207C5.10536 27.0195 5.00001 26.7651 5.00001 26.4999V20.9124C4.99955 20.7825 5.02471 20.6539 5.07404 20.5338C5.12338 20.4136 5.19591 20.3044 5.28751 20.2124L20.2875 5.21239C20.3806 5.11791 20.4915 5.04287 20.6138 4.99165C20.7361 4.94044 20.8674 4.91406 21 4.91406C21.1326 4.91406 21.2639 4.94044 21.3862 4.99165C21.5085 5.04287 21.6195 5.11791 21.7125 5.21239L27.2875 10.7874C27.382 10.8804 27.457 10.9914 27.5082 11.1137C27.5595 11.236 27.5858 11.3673 27.5858 11.4999C27.5858 11.6325 27.5595 11.7638 27.5082 11.8861C27.457 12.0084 27.382 12.1193 27.2875 12.2124L12 27.4999Z" fill="#4F7C95" stroke="#4F7C95" stroke-width="2" stroke-linecap="round" stroke-linejoin="round"/>
<path d="M27 27.5H12" stroke="#4F7C95" stroke-width="2" stroke-linecap="round" stroke-linejoin="round"/>
<path d="M17 8.5L24 15.5" stroke="white" stroke-width="2" stroke-linecap="round" stroke-linejoin="round"/>
</svg>
