<svg width="32" height="33" viewBox="0 0 32 33" fill="none" xmlns="http://www.w3.org/2000/svg">
<path d="M12 27.5H6.00001C5.73479 27.5 5.48044 27.3947 5.2929 27.2071C5.10536 27.0196 5.00001 26.7652 5.00001 26.5V20.9125C4.99955 20.7827 5.02471 20.654 5.07404 20.5339C5.12338 20.4138 5.19591 20.3046 5.28751 20.2125L20.2875 5.21251C20.3806 5.11803 20.4915 5.04299 20.6138 4.99178C20.7361 4.94056 20.8674 4.91418 21 4.91418C21.1326 4.91418 21.2639 4.94056 21.3862 4.99178C21.5085 5.04299 21.6195 5.11803 21.7125 5.21251L27.2875 10.7875C27.382 10.8806 27.457 10.9915 27.5082 11.1138C27.5595 11.2361 27.5858 11.3674 27.5858 11.5C27.5858 11.6326 27.5595 11.7639 27.5082 11.8862C27.457 12.0086 27.382 12.1195 27.2875 12.2125L12 27.5Z" fill="#4F7C95" stroke="#4F7C95" stroke-width="2" stroke-linecap="round" stroke-linejoin="round"/>
<path d="M27 27.5H12" stroke="#4F7C95" stroke-width="2" stroke-linecap="round" stroke-linejoin="round"/>
<path d="M17 8.5L24 15.5" stroke="white" stroke-width="2" stroke-linecap="round" stroke-linejoin="round"/>
</svg>
