<svg width="12" height="13" viewBox="0 0 12 13" fill="none" xmlns="http://www.w3.org/2000/svg">
<path d="M6.26725 10.4326L10.0641 6.63576C10.9969 5.69826 11.1329 4.16545 10.2516 3.18576C10.0306 2.93887 9.76159 2.73964 9.46099 2.60023C9.16038 2.46083 8.83451 2.38418 8.50328 2.37497C8.17205 2.36575 7.84242 2.42417 7.53453 2.54665C7.22664 2.66913 6.94696 2.8531 6.71256 3.08732L6.00006 3.80451L5.386 3.18576C4.4485 2.25295 2.91569 2.11701 1.936 2.99826C1.68912 3.21927 1.48988 3.48829 1.35048 3.7889C1.21107 4.0895 1.13442 4.41538 1.12521 4.74661C1.116 5.07784 1.17442 5.40747 1.2969 5.71536C1.41938 6.02325 1.60335 6.30293 1.83756 6.53732L5.73288 10.4326C5.80397 10.5031 5.9 10.5426 6.00006 10.5426C6.10013 10.5426 6.19615 10.5031 6.26725 10.4326V10.4326Z" stroke="#424242" stroke-linecap="round" stroke-linejoin="round"/>
</svg>
