<svg width="12" height="13" viewBox="0 0 12 13" fill="none" xmlns="http://www.w3.org/2000/svg">
<path d="M6.26725 10.4328L10.0641 6.63594C10.9969 5.69844 11.1329 4.16563 10.2516 3.18594C10.0306 2.93906 9.76159 2.73982 9.46099 2.60042C9.16038 2.46101 8.83451 2.38436 8.50328 2.37515C8.17205 2.36594 7.84242 2.42435 7.53453 2.54683C7.22664 2.66931 6.94696 2.85328 6.71256 3.0875L6.00006 3.80469L5.386 3.18594C4.4485 2.25313 2.91569 2.11719 1.936 2.99844C1.68912 3.21945 1.48988 3.48848 1.35048 3.78908C1.21107 4.08969 1.13442 4.41556 1.12521 4.74679C1.116 5.07802 1.17442 5.40765 1.2969 5.71554C1.41938 6.02343 1.60335 6.30311 1.83756 6.5375L5.73288 10.4328C5.80397 10.5032 5.9 10.5427 6.00006 10.5427C6.10013 10.5427 6.19615 10.5032 6.26725 10.4328V10.4328Z" stroke="#424242" stroke-linecap="round" stroke-linejoin="round"/>
</svg>
