<svg width="16" height="17" viewBox="0 0 16 17" fill="none" xmlns="http://www.w3.org/2000/svg">
<path d="M3.52029 11.4388C2.81446 10.248 2.56757 8.84043 2.82597 7.48046C3.08437 6.12049 3.83028 4.9016 4.92368 4.05262C6.01708 3.20363 7.38277 2.78295 8.76436 2.86953C10.1459 2.95612 11.4484 3.54402 12.4273 4.52287C13.4061 5.50171 13.994 6.80419 14.0806 8.18578C14.1672 9.56738 13.7465 10.9331 12.8975 12.0265C12.0485 13.1199 10.8297 13.8658 9.46968 14.1242C8.10971 14.3826 6.70219 14.1357 5.51135 13.4299V13.4299L3.54399 13.9869C3.46339 14.0105 3.37793 14.0119 3.29657 13.9911C3.2152 13.9703 3.14094 13.928 3.08156 13.8686C3.02217 13.8092 2.97986 13.7349 2.95905 13.6536C2.93823 13.5722 2.93969 13.4868 2.96327 13.4061L3.52029 11.4388Z" stroke="#424242" stroke-linecap="round" stroke-linejoin="round"/>
<path d="M8.4152 9.24641C8.80792 9.24641 9.12629 8.92804 9.12629 8.53531C9.12629 8.14259 8.80792 7.82422 8.4152 7.82422C8.02247 7.82422 7.7041 8.14259 7.7041 8.53531C7.7041 8.92804 8.02247 9.24641 8.4152 9.24641Z" fill="#424242"/>
<path d="M5.57047 9.24641C5.9632 9.24641 6.28156 8.92804 6.28156 8.53531C6.28156 8.14259 5.9632 7.82422 5.57047 7.82422C5.17774 7.82422 4.85938 8.14259 4.85938 8.53531C4.85938 8.92804 5.17774 9.24641 5.57047 9.24641Z" fill="#424242"/>
<path d="M11.2594 9.24641C11.6522 9.24641 11.9705 8.92804 11.9705 8.53531C11.9705 8.14259 11.6522 7.82422 11.2594 7.82422C10.8667 7.82422 10.5483 8.14259 10.5483 8.53531C10.5483 8.92804 10.8667 9.24641 11.2594 9.24641Z" fill="#424242"/>
</svg>
