<svg width="16" height="17" viewBox="0 0 16 17" fill="none" xmlns="http://www.w3.org/2000/svg">
<path d="M3.52029 11.4036C2.81446 10.2128 2.56757 8.80527 2.82597 7.4453C3.08437 6.08533 3.83028 4.86644 4.92368 4.01746C6.01708 3.16848 7.38277 2.74779 8.76436 2.83438C10.1459 2.92096 11.4484 3.50886 12.4273 4.48771C13.4061 5.46656 13.994 6.76904 14.0806 8.15063C14.1672 9.53222 13.7465 10.8979 12.8975 11.9913C12.0485 13.0847 10.8297 13.8306 9.46968 14.089C8.10971 14.3474 6.70219 14.1005 5.51135 13.3947V13.3947L3.54399 13.9517C3.46339 13.9753 3.37793 13.9768 3.29657 13.9559C3.2152 13.9351 3.14094 13.8928 3.08156 13.8334C3.02217 13.774 2.97986 13.6998 2.95905 13.6184C2.93823 13.5371 2.93969 13.4516 2.96327 13.371L3.52029 11.4036Z" stroke="#424242" stroke-linecap="round" stroke-linejoin="round"/>
<path d="M8.4152 9.21125C8.80792 9.21125 9.12629 8.89288 9.12629 8.50016C9.12629 8.10743 8.80792 7.78906 8.4152 7.78906C8.02247 7.78906 7.7041 8.10743 7.7041 8.50016C7.7041 8.89288 8.02247 9.21125 8.4152 9.21125Z" fill="#424242"/>
<path d="M5.57071 9.21125C5.96344 9.21125 6.28181 8.89288 6.28181 8.50016C6.28181 8.10743 5.96344 7.78906 5.57071 7.78906C5.17799 7.78906 4.85962 8.10743 4.85962 8.50016C4.85962 8.89288 5.17799 9.21125 5.57071 9.21125Z" fill="#424242"/>
<path d="M11.2594 9.21125C11.6522 9.21125 11.9705 8.89288 11.9705 8.50016C11.9705 8.10743 11.6522 7.78906 11.2594 7.78906C10.8667 7.78906 10.5483 8.10743 10.5483 8.50016C10.5483 8.89288 10.8667 9.21125 11.2594 9.21125Z" fill="#424242"/>
</svg>
