<svg width="9" height="21" viewBox="0 0 9 21" fill="none" xmlns="http://www.w3.org/2000/svg">
<path d="M5.875 14.5524L5.875 5.36485C5.875 5.01676 5.73672 4.68292 5.49058 4.43678C5.24444 4.19063 4.9106 4.05235 4.5625 4.05235C4.2144 4.05235 3.88056 4.19063 3.63442 4.43678C3.38828 4.68292 3.25 5.01676 3.25 5.36485L3.25 17.1774C3.25 18.5883 4.42305 19.7367 5.875 19.7367C7.32695 19.7367 8.5 18.5883 8.5 17.1774L8.5 5.20079C8.5 4.1565 8.08516 3.15498 7.34673 2.41656C6.60831 1.67813 5.60679 1.26329 4.5625 1.26329C3.51821 1.26329 2.51669 1.67813 1.77827 2.41656C1.03984 3.15498 0.625 4.1565 0.625 5.20079L0.625 14.3883" stroke="#846996" stroke-linecap="round" stroke-linejoin="round"/>
</svg>
