<svg width="9" height="20" viewBox="0 0 9 20" fill="none" xmlns="http://www.w3.org/2000/svg">
<path d="M5.875 14.0524L5.875 4.86485C5.875 4.51676 5.73672 4.18292 5.49058 3.93678C5.24444 3.69063 4.9106 3.55235 4.5625 3.55235C4.2144 3.55235 3.88056 3.69063 3.63442 3.93678C3.38828 4.18292 3.25 4.51676 3.25 4.86485L3.25 16.6774C3.25 18.0883 4.42305 19.2367 5.875 19.2367C7.32695 19.2367 8.5 18.0883 8.5 16.6774L8.5 4.70079C8.5 3.6565 8.08516 2.65498 7.34673 1.91656C6.60831 1.17813 5.60679 0.763291 4.5625 0.763291C3.51821 0.763291 2.51669 1.17813 1.77827 1.91656C1.03984 2.65498 0.625 3.6565 0.625 4.70079L0.625 13.8883" stroke="#846996" stroke-linecap="round" stroke-linejoin="round"/>
</svg>
